<svg width="626" height="722" viewBox="0 0 626 722" fill="none" xmlns="http://www.w3.org/2000/svg">
<path d="M195 234C163.337 281.688 116 345.974 78.5938 395.52C112 456.828 108 446.751 188.016 580C86 459.068 32 396.362 32 396.362L195 234Z" fill="#DB1A33" stroke="#DB1A33" stroke-width="32" stroke-linejoin="round"/>
<path d="M334 582C433.108 456.667 479 402.393 479 402.393L392.098 300L381.357 302.238L439.455 396.238C439.455 396.238 409.185 448.274 334 582Z" fill="#DB1A33" stroke="#DB1A33" stroke-width="32" stroke-linecap="square" stroke-linejoin="round"/>
<path d="M431 244.409C350.045 223.737 299.394 255.445 274.748 278C263.246 167.349 198.754 140.018 170 142.671C214.364 113.217 278.513 138.028 301.448 158.592C330.203 113.814 397.981 92.918 427.762 103.864C353.822 150.632 354.164 171.528 343.553 186.454C381.132 197.898 404.447 209.526 431 244.409Z" fill="#12C078"/>
</svg>

